<svg xmlns="http://www.w3.org/2000/svg" xmlns:xlink="http://www.w3.org/1999/xlink" aria-hidden="true" role="img" class="iconify iconify--logos" width="31.88" height="32" preserveAspectRatio="xMidYMid meet" viewBox="0 0 256 257"><defs><linearGradient id="IconifyId1813088fe1fbc01fb466" x1="-.828%" x2="57.636%" y1="7.652%" y2="78.411%"><stop offset="0%" stop-color="#41D1FF"></stop><stop offset="100%" stop-color="#BD34FE"></stop></linearGradient></defs><path fill="url(#IconifyId1813088fe1fbc01fb466)" d="M255.153 37.938L134.897 252.976c-2.483 4.44-8.862 4.466-11.382.048L.875 37.958c-4.334-6.496-2.411-15.236 4.34-19.064l205.594-114.188c4.345-2.411 9.733-1.46 12.884 2.164l31.158 25.843c2.775 2.304 5.112 5.075 6.881 8.225Z"></path><path fill="#0052D4" d="M149.121 33.292L15.336 108.702c-6.625 3.697-6.625 13.243 0 16.94l129.723 71.746a9.813 9.813 0 0 0 9.813 0l131.67-72.513c6.625-3.697 6.625-13.243 0-16.94l-127.421-70.643Z"></path></svg>
